<?xml version="1.0" standalone="no"?>
<!DOCTYPE svg PUBLIC "-//W3C//DTD SVG 20010904//EN"
 "http://www.w3.org/TR/2001/REC-SVG-20010904/DTD/svg10.dtd">
<svg version="1.0" xmlns="http://www.w3.org/2000/svg"
 width="16.000000pt" height="16.000000pt" viewBox="0 0 16.000000 16.000000"
 preserveAspectRatio="xMidYMid meet">
<metadata>
Created by potrace 1.11, written by Peter Selinger 2001-2013
</metadata>
<g transform="translate(0.000000,16.000000) scale(0.001896,-0.001896)"
fill="#000000" stroke="none">
<path d="M211 8266 c-1 -12 -6 -16 -16 -12 -19 7 -19 -3 0 -28 10 -13 15 -46
16 -95 2 -74 3 -72 15 18 l6 43 135 -128 c74 -71 174 -169 221 -218 48 -49
146 -146 217 -215 72 -69 166 -164 210 -211 44 -47 328 -334 630 -638 303
-304 549 -556 547 -560 -9 -19 -1947 -1952 -1957 -1952 -3 0 -6 33 -6 73 -1
39 -5 86 -10 102 -6 21 -7 10 -5 -40 4 -69 -10 -167 -28 -194 -6 -10 -6 -12 2
-7 9 5 12 -11 12 -58 0 -37 4 -66 10 -66 6 0 10 27 10 60 0 33 4 60 8 60 11 0
282 -269 1037 -1029 347 -348 644 -643 660 -654 17 -12 -143 152 -355 363
-731 729 -1340 1346 -1340 1356 0 6 201 208 446 450 245 241 691 683 990 982
l545 543 106 -98 c59 -54 252 -244 428 -423 387 -393 710 -717 785 -787 75
-71 654 -663 658 -673 5 -12 -164 -185 -688 -708 -256 -255 -471 -469 -477
-475 -7 -7 -182 -185 -390 -395 -208 -211 -386 -388 -397 -394 -15 -8 -37 8
-140 111 -68 67 -127 121 -132 121 -5 -1 32 -40 83 -88 88 -83 143 -146 143
-164 0 -4 -7 -8 -15 -8 -13 0 -13 -3 -3 -13 7 -8 20 -12 29 -10 21 6 307 -267
779 -742 195 -197 545 -547 778 -778 232 -231 422 -424 422 -428 0 -5 -108 -9
-239 -9 -141 0 -242 -4 -246 -10 -3 -5 79 -9 217 -10 274 -2 292 -3 314 -21
11 -9 15 -9 10 -1 -5 9 8 12 54 12 79 0 69 16 -15 25 l-65 7 -853 851 c-469
469 -905 902 -969 962 -63 61 -120 120 -126 131 l-11 22 607 7 c334 4 704 5
822 1 293 -8 1384 -9 2003 0 l508 7 52 -49 52 -49 -45 48 c-42 45 -43 47 -20
48 20 0 16 4 -16 15 -23 8 -46 25 -53 37 -7 12 -49 56 -93 97 -100 93 -707
700 -717 718 -12 21 -833 842 -842 842 -17 0 -9 -19 13 -31 30 -16 728 -710
728 -724 0 -5 207 -217 460 -470 253 -253 460 -463 460 -467 0 -12 -1837 -18
-2717 -10 -171 2 -514 0 -762 -4 -248 -4 -451 -4 -451 0 0 4 377 383 838 844
460 460 878 882 927 936 50 54 117 120 150 147 l60 48 99 -97 c107 -105 99
-80 -14 40 l-70 75 313 318 c171 175 316 324 321 332 18 32 -22 -3 -72 -62
-78 -93 -557 -565 -573 -565 -26 0 -1996 1974 -1980 1984 19 12 12 25 -14 23
-21 -2 -174 147 -908 877 -485 484 -928 924 -983 978 -76 74 -98 101 -86 105
13 6 13 8 -3 13 -11 4 -23 18 -26 31 -5 18 -7 19 -8 5z"/>
<path d="M8200 8256 c0 -23 -30 -28 -180 -26 -79 0 -142 -1 -139 -4 3 -3 67
-6 142 -7 92 -1 137 -5 137 -13 0 -6 -116 -127 -257 -268 -142 -142 -253 -258
-248 -258 6 0 129 119 275 265 145 146 265 263 267 261 2 -1 3 -446 3 -987 0
-541 0 -1787 0 -2769 0 -982 1 -2326 3 -2988 1 -661 -1 -1201 -5 -1200 -12 5
-234 219 -386 372 -81 82 -210 212 -287 289 -358 356 -751 749 -865 865 -69
70 -167 166 -217 214 -51 48 -93 91 -93 96 0 10 -30 25 -37 19 -2 -3 74 -80
169 -172 95 -92 241 -237 323 -324 120 -125 987 -985 1312 -1302 73 -71 74
-75 13 -82 -27 -3 -23 -4 16 -5 42 -2 53 -6 62 -25 8 -16 11 -18 11 -5 1 9 7
19 14 21 9 4 9 8 -2 15 -13 9 -15 546 -15 3993 l0 3983 24 7 25 7 -24 1 c-16
1 -21 6 -18 15 3 8 -1 17 -9 20 -8 3 -14 -1 -14 -8z"/>
<path d="M2300 8240 c-146 -3 -254 -8 -240 -11 28 -7 859 -4 866 3 6 7 -226
18 -300 16 -34 -1 -180 -5 -326 -8z"/>
<path d="M903 8234 c10 -11 351 -14 367 -4 10 6 -54 10 -179 10 -107 0 -192
-3 -188 -6z"/>
<path d="M3783 8233 c15 -2 39 -2 55 0 15 2 2 4 -28 4 -30 0 -43 -2 -27 -4z"/>
<path d="M5316 8230 c59 -9 562 -5 571 4 4 3 -135 5 -308 5 -182 -1 -293 -5
-263 -9z"/>
<path d="M338 8223 c23 -2 59 -2 80 0 20 2 1 4 -43 4 -44 0 -61 -2 -37 -4z"/>
<path d="M510 8220 c-9 -6 31 -7 110 -4 69 3 127 8 129 10 9 9 -225 3 -239 -6z"/>
<path d="M808 8223 c7 -3 16 -2 19 1 4 3 -2 6 -13 5 -11 0 -14 -3 -6 -6z"/>
<path d="M1505 8221 c110 -3 245 -3 300 0 55 3 -35 6 -200 5 -277 0 -285 0
-100 -5z"/>
<path d="M1943 8223 c9 -2 25 -2 35 0 9 3 1 5 -18 5 -19 0 -27 -2 -17 -5z"/>
<path d="M3063 8224 c8 -8 677 -8 685 0 3 3 -151 6 -343 6 -192 0 -345 -3
-342 -6z"/>
<path d="M3943 8223 c9 -2 25 -2 35 0 9 3 1 5 -18 5 -19 0 -27 -2 -17 -5z"/>
<path d="M4313 8223 c20 -2 54 -2 75 0 20 2 3 4 -38 4 -41 0 -58 -2 -37 -4z"/>
<path d="M4438 8223 c6 -2 18 -2 25 0 6 3 1 5 -13 5 -14 0 -19 -2 -12 -5z"/>
<path d="M4548 8223 c23 -2 61 -2 85 0 23 2 4 4 -43 4 -47 0 -66 -2 -42 -4z"/>
<path d="M5058 8223 c17 -2 47 -2 65 0 17 2 3 4 -33 4 -36 0 -50 -2 -32 -4z"/>
<path d="M5958 8220 c58 -9 159 -6 169 4 3 3 -45 5 -108 5 -95 -1 -105 -3 -61
-9z"/>
<path d="M6180 8219 c-19 -4 46 -6 145 -7 99 0 173 2 165 4 -29 7 -275 9 -310
3z"/>
<path d="M6985 8219 c-16 -4 83 -7 220 -7 138 0 238 3 224 8 -31 9 -401 9
-444 -1z"/>
<path d="M7553 8223 c9 -2 25 -2 35 0 9 3 1 5 -18 5 -19 0 -27 -2 -17 -5z"/>
<path d="M6613 8213 c15 -2 39 -2 55 0 15 2 2 4 -28 4 -30 0 -43 -2 -27 -4z"/>
<path d="M210 7936 c0 -9 5 -16 10 -16 6 0 10 4 10 9 0 6 -4 13 -10 16 -5 3
-10 -1 -10 -9z"/>
<path d="M224 7725 c0 -93 2 -133 3 -88 2 45 2 122 0 170 -1 48 -3 12 -3 -82z"/>
<path d="M7537 7563 c-116 -123 -1791 -1794 -2086 -2082 -171 -167 -311 -308
-311 -314 0 -5 129 118 288 275 158 157 316 311 352 344 94 85 1734 1730 1782
1787 55 65 41 59 -25 -10z"/>
<path d="M217 7330 c-4 -107 -9 -265 -13 -350 -4 -89 -2 -170 3 -190 7 -25 12
64 18 320 4 195 5 369 3 385 -2 17 -7 -58 -11 -165z"/>
<path d="M213 6690 c0 -36 2 -50 4 -32 2 17 2 47 0 65 -2 17 -4 3 -4 -33z"/>
<path d="M212 6600 c0 -14 2 -19 5 -12 2 6 2 18 0 25 -3 6 -5 1 -5 -13z"/>
<path d="M214 6360 c0 -58 1 -81 3 -52 2 28 2 76 0 105 -2 28 -3 5 -3 -53z"/>
<path d="M212 6100 c0 -14 2 -19 5 -12 2 6 2 18 0 25 -3 6 -5 1 -5 -13z"/>
<path d="M211 5854 c0 -156 3 -212 10 -194 10 24 4 399 -6 409 -3 2 -5 -94 -4
-215z"/>
<path d="M206 5574 c-9 -24 -7 -54 4 -54 6 0 10 16 10 35 0 38 -4 44 -14 19z"/>
<path d="M201 5335 c0 -99 4 -200 8 -225 5 -28 8 34 8 167 0 116 -4 218 -8
225 -5 7 -8 -68 -8 -167z"/>
<path d="M4989 5020 c-42 -38 -84 -82 -94 -97 -9 -15 26 15 79 67 88 87 101
100 94 100 -2 0 -37 -32 -79 -70z"/>
<path d="M213 4905 c0 -151 1 -154 7 -54 3 58 3 130 -1 160 -4 33 -6 -9 -6
-106z"/>
<path d="M209 4735 c-3 -5 -7 -37 -8 -70 -2 -44 1 -57 9 -49 6 6 10 36 8 70
-2 32 -6 55 -9 49z"/>
<path d="M200 4573 c0 -10 5 -25 10 -33 8 -12 10 -9 10 12 0 15 -4 30 -10 33
-5 3 -10 -2 -10 -12z"/>
<path d="M203 4014 c-3 -8 -1 -43 4 -77 l10 -62 2 78 c1 75 -3 93 -16 61z"/>
<path d="M4420 4007 c0 -2 15 -16 33 -33 l32 -29 -29 33 c-28 30 -36 37 -36
29z"/>
<path d="M211 3794 c0 -11 3 -14 6 -6 3 7 2 16 -1 19 -3 4 -6 -2 -5 -13z"/>
<path d="M212 3750 c0 -14 2 -19 5 -12 2 6 2 18 0 25 -3 6 -5 1 -5 -13z"/>
<path d="M211 3628 c-1 -21 4 -38 9 -38 11 0 11 14 0 50 -7 22 -8 21 -9 -12z"/>
<path d="M223 3485 c0 -38 2 -53 4 -32 2 20 2 52 0 70 -2 17 -4 1 -4 -38z"/>
<path d="M224 3030 c0 -157 2 -221 3 -142 2 78 2 206 0 285 -1 78 -3 14 -3
-143z"/>
<path d="M211 2705 c0 -35 1 -37 10 -17 6 15 5 30 -1 40 -7 13 -9 8 -9 -23z"/>
<path d="M207 2631 c-8 -33 -7 -602 2 -671 5 -43 9 63 10 313 0 207 -1 377 -3
377 -2 0 -6 -9 -9 -19z"/>
<path d="M213 1830 c0 -25 2 -35 4 -22 2 12 2 32 0 45 -2 12 -4 2 -4 -23z"/>
<path d="M213 1715 c0 -27 2 -38 4 -22 2 15 2 37 0 50 -2 12 -4 0 -4 -28z"/>
<path d="M208 1631 c-5 -18 -8 -50 -8 -70 1 -29 3 -33 11 -18 5 9 9 41 7 70
-3 49 -3 50 -10 18z"/>
<path d="M203 1385 c0 -44 2 -61 4 -37 2 23 2 59 0 80 -2 20 -4 1 -4 -43z"/>
<path d="M205 1165 c3 -71 5 -170 5 -219 0 -49 3 -86 7 -82 11 10 3 371 -8
404 -6 17 -7 -19 -4 -103z"/>
<path d="M222 508 c-2 -242 -4 -268 -19 -277 -16 -9 -16 -10 -1 -11 9 0 19 -8
21 -17 4 -17 5 -17 6 0 1 15 18 17 199 19 l197 3 -186 2 c-139 3 -190 7 -198
17 -7 8 -12 104 -14 272 l-2 259 -3 -267z"/>
<path d="M1153 243 c-6 -5 113 -9 265 -9 152 -1 262 2 244 6 -44 10 -494 12
-509 3z"/>
<path d="M4575 240 c-4 -6 37 -10 115 -10 78 0 119 4 115 10 -4 6 -53 10 -115
10 -62 0 -111 -4 -115 -10z"/>
<path d="M5140 241 c-55 -10 165 -21 390 -19 l195 1 -241 7 c-133 4 -257 10
-275 12 -19 3 -50 2 -69 -1z"/>
<path d="M8023 243 c-55 -4 -75 -23 -24 -23 43 0 91 11 91 21 0 5 -3 8 -7 7
-5 -1 -32 -3 -60 -5z"/>
<path d="M790 230 c0 -5 14 -7 33 -3 45 8 47 13 4 13 -20 0 -37 -4 -37 -10z"/>
<path d="M968 233 c6 -2 18 -2 25 0 6 3 1 5 -13 5 -14 0 -19 -2 -12 -5z"/>
<path d="M1018 233 c7 -3 16 -2 19 1 4 3 -2 6 -13 5 -11 0 -14 -3 -6 -6z"/>
<path d="M1720 230 c36 -11 50 -11 50 0 0 6 -17 10 -37 9 -34 -1 -35 -2 -13
-9z"/>
<path d="M2190 230 l-395 -5 428 -3 c279 -1 427 1 427 8 0 6 -15 9 -32 8 -18
-2 -211 -5 -428 -8z"/>
<path d="M3075 230 c-307 -4 -356 -6 -195 -8 351 -5 663 -1 700 8 29 7 24 8
-30 7 -36 -1 -249 -4 -475 -7z"/>
<path d="M4490 231 c0 -5 9 -7 20 -4 11 3 20 7 20 9 0 2 -9 4 -20 4 -11 0 -20
-4 -20 -9z"/>
<path d="M4958 233 c6 -2 18 -2 25 0 6 3 1 5 -13 5 -14 0 -19 -2 -12 -5z"/>
<path d="M5063 233 c9 -2 23 -2 30 0 6 3 -1 5 -18 5 -16 0 -22 -2 -12 -5z"/>
<path d="M5740 229 c0 -5 5 -7 10 -4 6 3 10 8 10 11 0 2 -4 4 -10 4 -5 0 -10
-5 -10 -11z"/>
<path d="M5850 230 l-85 -6 93 -2 c60 -1 91 2 87 8 -3 6 -7 9 -8 8 -1 -1 -40
-5 -87 -8z"/>
<path d="M5974 229 c-3 -5 33 -9 85 -8 50 1 91 4 91 8 0 11 -169 10 -176 0z"/>
<path d="M6160 230 c0 -5 5 -10 11 -10 5 0 7 5 4 10 -3 6 -8 10 -11 10 -2 0
-4 -4 -4 -10z"/>
<path d="M6335 230 c3 -5 8 -10 11 -10 2 0 4 5 4 10 0 6 -5 10 -11 10 -5 0 -7
-4 -4 -10z"/>
<path d="M6460 229 c0 -5 5 -7 10 -4 6 3 10 8 10 11 0 2 -4 4 -10 4 -5 0 -10
-5 -10 -11z"/>
<path d="M6497 229 c7 -7 15 -10 18 -7 3 3 -2 9 -12 12 -14 6 -15 5 -6 -5z"/>
<path d="M6533 234 c9 -10 257 -11 257 -2 0 4 -59 8 -132 8 -72 0 -128 -3
-125 -6z"/>
<path d="M7390 231 c0 -6 104 -9 263 -9 233 1 247 2 127 8 -203 11 -390 11
-390 1z"/>
<path d="M643 223 c9 -2 25 -2 35 0 9 3 1 5 -18 5 -19 0 -27 -2 -17 -5z"/>
<path d="M6198 223 c7 -3 16 -2 19 1 4 3 -2 6 -13 5 -11 0 -14 -3 -6 -6z"/>
<path d="M6258 223 c7 -3 16 -2 19 1 4 3 -2 6 -13 5 -11 0 -14 -3 -6 -6z"/>
<path d="M6383 223 c15 -2 37 -2 50 0 12 2 0 4 -28 4 -27 0 -38 -2 -22 -4z"/>
<path d="M6900 220 c36 -4 158 -5 270 -1 l205 8 -270 0 c-174 0 -247 -2 -205
-7z"/>
</g>
</svg>
